HIERARCHY
ROOT root
{
	OFFSET 0.000000 0.000000 0.000000
	CHANNELS 6 Xposition Yposition Zposition Zrotation Yrotation Xrotation
	JOINT lhip
	{
		OFFSET 0.058581 -0.082280 -0.017664
		CHANNELS 3 Zrotation Yrotation Xrotation
		JOINT lknee
		{
			OFFSET 0.043451 -0.386469 0.008037
			CHANNELS 3 Zrotation Yrotation Xrotation
			JOINT lankle
			{
				OFFSET -0.014790 -0.426874 -0.037428
				CHANNELS 3 Zrotation Yrotation Xrotation
				JOINT ltoe
				{
					OFFSET 0.041054 -0.060286 0.122042
					CHANNELS 3 Zrotation Yrotation Xrotation
					End Site
					{
						OFFSET 0.000000 0.000000 0.000000
					}
				}
			}
		}
	}
	JOINT rhip
	{
		OFFSET -0.060310 -0.090513 -0.013543
		CHANNELS 3 Zrotation Yrotation Xrotation
		JOINT rknee
		{
			OFFSET -0.043257 -0.383688 -0.004843
			CHANNELS 3 Zrotation Yrotation Xrotation
			JOINT rankle
			{
				OFFSET 0.019056 -0.420046 -0.034562
				CHANNELS 3 Zrotation Yrotation Xrotation
				JOINT rtoe
				{
					OFFSET -0.034840 -0.062106 0.130323
					CHANNELS 3 Zrotation Yrotation Xrotation
					End Site
					{
						OFFSET 0.000000 0.000000 0.000000
					}
				}
			}
		}
	}
	JOINT lowerback
	{
		OFFSET 0.004439 0.124404 -0.038385
		CHANNELS 3 Zrotation Yrotation Xrotation
		JOINT upperback
		{
			OFFSET 0.004488 0.137956 0.026820
			CHANNELS 3 Zrotation Yrotation Xrotation
			JOINT chest
			{
				OFFSET -0.002265 0.056032 0.002855
				CHANNELS 3 Zrotation Yrotation Xrotation
				JOINT lowerneck
				{
					OFFSET -0.013390 0.211636 -0.033468
					CHANNELS 3 Zrotation Yrotation Xrotation
					JOINT upperneck
					{
						OFFSET 0.010113 0.088937 0.050410
						CHANNELS 3 Zrotation Yrotation Xrotation
						End Site
						{
							OFFSET 0.000000 0.000000 0.000000
						}
					}
				}
				JOINT lclavicle
				{
					OFFSET 0.071702 0.114000 -0.018898
					CHANNELS 3 Zrotation Yrotation Xrotation
					JOINT lshoulder
					{
						OFFSET 0.122921 0.045205 -0.019046
						CHANNELS 3 Zrotation Yrotation Xrotation
						JOINT lelbow
						{
							OFFSET 0.255332 -0.015649 -0.022946
							CHANNELS 3 Zrotation Yrotation Xrotation
							JOINT lwrist
							{
								OFFSET 0.265709 0.012698 -0.007375
								CHANNELS 3 Zrotation Yrotation Xrotation
								End Site
								{
									OFFSET 0.000000 0.000000 0.000000
								}
							}
						}
					}
				}
				JOINT rclavicle
				{
					OFFSET -0.082954 0.112472 -0.023707
					CHANNELS 3 Zrotation Yrotation Xrotation
					JOINT rshoulder
					{
						OFFSET -0.113228 0.046853 -0.008472
						CHANNELS 3 Zrotation Yrotation Xrotation
						JOINT relbow
						{
							OFFSET -0.260127 -0.014369 -0.031269
							CHANNELS 3 Zrotation Yrotation Xrotation
							JOINT rwrist
							{
								OFFSET -0.269108 0.006794 -0.006027
								CHANNELS 3 Zrotation Yrotation Xrotation
								End Site
								{
									OFFSET 0.000000 0.000000 0.000000
								}
							}
						}
					}
				}
			}
		}
	}
}
MOTION
Frames: 10
Frame Time: 0.033333
0.372247 0.258780 1.009021 -85.252479 1.247278 83.640992 -0.272463 -0.133783 2.546841 -4.419546 -10.695244 4.886748 4.067932 9.805495 -14.114272 0.000000 -0.000000 0.000000 -2.427220 -2.236303 -13.568181 1.528647 -9.760708 52.977285 2.593739 -8.433206 -6.326546 0.000000 -0.000000 0.000000 -2.824896 0.666743 10.527090 1.350387 -2.787139 4.620931 0.285535 -1.960096 2.629276 1.370183 2.401706 -3.414985 4.566249 -1.019575 -7.690346 -20.944206 -6.461434 6.612288 -58.759212 -7.428810 10.279353 10.620025 -28.276116 11.125248 4.888382 -5.558364 -5.962190 19.291495 2.364192 4.570357 64.998079 -2.057737 9.138568 -20.640230 30.499784 -1.595681 4.569918 4.592920 -7.989772 
0.353893 0.258335 1.010573 -83.887653 1.928668 83.611797 0.462675 0.248877 3.600049 -4.361370 -11.847899 5.444861 3.629394 9.447538 -15.275680 0.000000 -0.000000 0.000000 -2.032446 -1.847311 -16.084344 1.275292 -10.432911 49.086120 3.360554 -8.922916 -6.591358 0.000000 -0.000000 0.000000 -2.504656 -0.165139 10.852063 1.644890 -3.084334 4.505541 0.565729 -2.416234 2.657481 1.392551 2.453994 -3.058755 4.679436 -1.069489 -7.603593 -20.690242 -6.613714 6.654787 -58.767977 -8.748209 10.177956 10.717209 -28.037739 11.105285 4.478549 -5.599998 -5.687068 19.102187 2.016173 4.597910 65.104325 -2.360102 9.077354 -20.279185 30.482718 -1.165506 5.186677 4.526319 -8.459550 
0.335422 0.258506 1.010926 -82.501061 2.503614 83.588619 1.159888 0.698484 4.585770 -4.302195 -13.052475 6.106012 3.104001 9.090007 -16.523763 0.000000 -0.000000 0.000000 -1.845686 -1.657651 -17.787189 0.913178 -11.111037 43.456907 3.542582 -9.420641 -6.666789 0.000000 -0.000000 0.000000 -2.254425 -0.836114 11.331081 1.857888 -3.406467 4.380306 0.918809 -2.917261 2.570650 1.333444 2.397679 -2.973286 4.933344 -1.083544 -7.808447 -20.636366 -6.854974 6.871959 -58.453636 -9.801728 10.038027 10.657969 -28.391142 10.717543 4.440668 -5.731026 -5.788321 19.206488 1.669962 4.629711 64.817619 -2.839836 9.101120 -19.826500 30.963464 -0.618299 5.635110 4.561207 -8.649429 
0.316610 0.259339 1.009812 -81.399403 2.887273 83.635843 1.738401 0.973811 5.701738 -4.132976 -13.809347 6.379481 2.837783 8.671906 -17.744715 0.000000 -0.000000 0.000000 -1.674612 -1.754590 -18.949008 0.508865 -11.610406 36.635015 3.504213 -10.329123 -6.031880 0.000000 -0.000000 0.000000 -2.188905 -1.165447 11.595427 2.011327 -3.668002 4.332502 1.308891 -3.346047 2.640336 1.300605 2.189386 -3.059535 5.280815 -1.060481 -8.138113 -20.508187 -7.128678 7.103585 -58.278140 -10.938580 9.940268 10.637578 -28.852971 10.330183 5.059880 -6.093837 -5.857423 19.329872 1.470572 4.637899 64.805914 -3.303057 9.185085 -19.882530 31.308880 -0.557715 5.490968 4.568205 -8.708908 
0.297223 0.260647 1.007427 -80.776840 2.881599 83.942206 2.143042 1.467366 6.861546 -4.091789 -14.443796 6.165970 2.638706 8.317205 -18.857684 0.000000 -0.000000 0.000000 -1.630776 -2.143368 -19.850138 0.685906 -11.217774 28.943599 3.677159 -10.578977 -5.137198 0.000000 -0.000000 0.000000 -2.388391 -1.227896 11.277707 2.028279 -3.796517 4.424231 1.596496 -3.618843 2.788834 1.418518 2.040972 -3.099397 5.590604 -1.106830 -8.350589 -20.210291 -7.216174 7.280476 -58.122786 -11.944730 9.995754 10.377551 -29.614131 10.491367 5.566092 -6.296032 -6.034283 19.383221 1.145012 4.772238 65.226162 -3.367207 9.168788 -20.169072 31.018932 -0.814688 5.183651 4.503735 -8.612931 
0.277152 0.262204 1.004509 -80.451352 2.679606 84.628150 2.396240 1.790266 7.704419 -4.132151 -14.837387 5.908519 2.583697 8.130601 -19.901121 0.000000 -0.000000 0.000000 -1.560842 -2.465788 -20.502530 1.381725 -9.659816 20.591054 4.243883 -9.589900 -3.555767 0.000000 -0.000000 0.000000 -2.568712 -1.138765 10.403416 1.941909 -3.929983 4.530739 1.666375 -3.827952 2.904891 1.596773 2.106920 -3.100895 5.835428 -1.118181 -8.450204 -19.945652 -6.972656 7.226342 -57.969689 -12.607339 10.395623 10.009134 -30.477159 10.770505 6.079197 -6.617078 -5.993891 19.445321 0.598876 4.882380 65.618173 -3.241458 9.413480 -20.126766 30.411321 -0.989696 4.751700 4.319907 -9.092322 
0.256009 0.264110 1.001392 -80.194237 2.558406 85.229893 2.790299 2.154140 8.404163 -4.279735 -14.991438 6.259933 2.535931 7.905124 -20.973694 0.000000 -0.000000 0.000000 -1.293764 -2.724297 -20.399483 1.899550 -7.785058 12.412305 5.092315 -8.104736 -1.783797 0.000000 -0.000000 0.000000 -2.547086 -0.976366 9.396051 1.887225 -4.097909 4.937375 1.679197 -3.889587 2.743895 1.604297 1.950285 -2.673961 6.063816 -1.192747 -8.840969 -19.970655 -6.645733 7.297467 -57.723155 -13.311160 10.587745 9.550770 -31.177735 11.318664 5.803972 -7.041141 -5.649947 19.550384 0.076511 4.995183 65.935791 -3.268164 9.377914 -20.194504 29.881341 -1.133096 4.821191 4.221531 -9.441798 
0.233660 0.266030 0.998041 -79.754073 2.541731 85.624628 3.099862 2.282286 8.886547 -4.266893 -15.282042 7.578856 2.434600 7.921317 -22.080909 0.000000 -0.000000 0.000000 -1.151647 -2.612492 -19.773735 2.123632 -6.317898 6.037388 5.541251 -7.251939 0.306487 0.000000 -0.000000 0.000000 -2.297001 -1.010765 8.547578 1.808168 -4.331830 5.322301 1.670669 -3.986544 2.577028 1.440109 1.553318 -2.220064 6.205377 -0.955503 -9.311605 -20.207589 -6.538815 7.558381 -57.548079 -13.666010 10.696218 9.448155 -31.835254 11.468513 5.740519 -7.145991 -5.633786 19.597399 -0.129239 5.132717 65.877860 -3.455046 9.393497 -19.825046 29.573311 -0.993453 4.811180 4.048635 -9.892484 
0.209401 0.268972 0.994743 -79.038301 2.573093 85.719197 3.472639 1.822839 9.615634 -4.301528 -15.667499 9.312377 2.232647 8.166120 -23.095346 0.000000 -0.000000 0.000000 -1.084987 -2.322048 -18.748213 2.369612 -6.259550 2.839861 5.907127 -7.288240 1.136239 0.000000 -0.000000 0.000000 -2.137797 -1.088795 7.931784 1.873447 -4.617086 5.624625 1.731263 -4.189829 2.551399 1.330332 1.413740 -2.076549 6.125498 -0.978657 -9.541620 -20.320690 -6.507295 7.749311 -57.683915 -13.890963 10.842060 9.414617 -31.998610 11.603002 5.405541 -7.413602 -5.721163 19.755200 -0.337278 5.097775 65.655380 -3.735060 9.356557 -19.668321 29.338830 -0.832863 4.858366 3.991182 -9.912004 
0.184360 0.272449 0.991913 -78.389853 2.457058 85.834569 3.588439 1.145668 10.144430 -4.342621 -16.159764 11.621308 2.105528 8.700216 -23.902792 0.000000 -0.000000 0.000000 -0.960843 -2.001500 -17.866767 2.478896 -6.279366 2.818959 5.956611 -7.497259 2.029374 0.000000 -0.000000 0.000000 -2.175669 -1.142879 7.303002 2.023642 -4.794282 5.666378 1.764465 -4.376366 2.602026 1.205695 1.161739 -1.961006 6.024658 -1.030231 -9.518311 -20.325226 -6.502536 8.051049 -58.147188 -13.933265 10.970283 9.577964 -31.970279 11.637620 5.159461 -7.307622 -6.037291 19.913782 -0.572044 5.141105 65.449805 -4.005448 9.250443 -19.634049 29.077965 -0.744638 4.930659 3.870968 -9.890252 
